<svg width="68" height="17" viewBox="0 0 68 17" fill="none" xmlns="http://www.w3.org/2000/svg">
<path d="M4.16646 15.23H10.8334C12.1331 15.23 12.7797 14.5708 12.7797 13.265V7.56469H8.23441C7.43084 7.56469 7.05423 7.18166 7.05423 6.37809V1.77014H4.16646C2.87325 1.77014 2.22021 2.4355 2.22021 3.74157V13.265C2.22021 14.5769 2.87325 15.23 4.16646 15.23ZM8.25343 6.70461H12.7106C12.6666 6.4472 12.4845 6.19595 12.1896 5.88844L8.72405 2.36666C8.4353 2.06532 8.17173 1.88318 7.90789 1.83898V6.36577C7.90789 6.59157 8.02736 6.70461 8.25343 6.70461ZM5.08307 10.2832C4.82566 10.2832 4.64352 10.101 4.64352 9.85621C4.64352 9.61112 4.82566 9.42925 5.0828 9.42925H9.92298C10.1742 9.42925 10.369 9.61139 10.369 9.85594C10.369 10.101 10.1742 10.2829 9.92325 10.2829L5.08307 10.2832ZM5.08307 12.6749C4.82566 12.6749 4.64352 12.4927 4.64352 12.2479C4.64352 12.0031 4.82566 11.8209 5.0828 11.8209H9.92298C10.1742 11.8209 10.369 12.0031 10.369 12.2479C10.369 12.4927 10.1742 12.6749 9.92325 12.6749H5.08307Z" fill="#22C55E"/>
<g clip-path="url(#clip0_341_725)">
<path d="M38.0209 4.08333C37.0768 3.83098 36.1545 3.50355 35.2626 3.10417C34.3853 2.72359 33.5383 2.27645 32.7292 1.76667L32.5001 1.625L32.2751 1.77083C31.466 2.28062 30.6191 2.72776 29.7417 3.10833C28.8484 3.5065 27.9246 3.83254 26.9792 4.08333L26.6667 4.1625V7.6375C26.6667 13.2167 32.3042 15.3042 32.3584 15.325L32.5001 15.375L32.6417 15.325C32.7001 15.325 38.3334 13.2208 38.3334 7.6375V4.1625L38.0209 4.08333ZM36.1167 6.85417L31.4626 11.375L28.8292 8.7375C28.7187 8.62699 28.6567 8.47711 28.6567 8.32083C28.6567 8.16455 28.7187 8.01467 28.8292 7.90417C28.9398 7.79366 29.0896 7.73158 29.2459 7.73158C29.4022 7.73158 29.5521 7.79366 29.6626 7.90417L31.4751 9.75L35.3042 6C35.359 5.94528 35.4239 5.90188 35.4954 5.87227C35.5669 5.84265 35.6435 5.82741 35.7209 5.82741C35.7983 5.82741 35.8749 5.84265 35.9464 5.87227C36.0179 5.90188 36.0829 5.94528 36.1376 6C36.1923 6.05472 36.2357 6.11968 36.2653 6.19117C36.2949 6.26266 36.3102 6.33928 36.3102 6.41667C36.3102 6.49405 36.2949 6.57067 36.2653 6.64216C36.2357 6.71366 36.1923 6.77862 36.1376 6.83333L36.1167 6.85417Z" fill="#F4A300"/>
</g>
<path d="M58.5001 12.0417H53.5417V4.95837H63.4584V12.0417H58.5001Z" fill="#FF1C1C" stroke="#FF1C1C" stroke-width="2" stroke-linecap="round" stroke-linejoin="round"/>
<path d="M52.125 13.4584H64.875" stroke="#FF1C1C" stroke-width="2" stroke-linecap="round" stroke-linejoin="round"/>
<defs>
<clipPath id="clip0_341_725">
<rect width="15" height="15" fill="white" transform="translate(25 1)"/>
</clipPath>
</defs>
</svg>
